PathFileType	3	(X/Y/Z)	F:\ViconData\AntennenMessung\Messung1\Session1\ID10.trc
DataRate	CameraRate	NumFrames	NumMarkers	Units	OrigDataRate	OrigDataStartFrame	OrigNumFrames
120.0	120.0	6	70	mm	120.0	939	1251	
Frame#	Time	Ashort			Along			Atop			A4			Bshort			Blong			Btop			B4			Cshort			Clong			Ctop			C4			Dshort			Dlong			Dtop			D4			Eshort			Elong			Etop			E4			Fshort			Flong			Ftop			F4			Gshort			Glong			Gtop			G4			Hshort			Hlong			Htop			H4			I1			I2			I3			I4			I5			WandAshort			WandAlong			WandAtop			WandA4			WandA15			WandBshort			WandB4			WandB5			WandBtop			WandBlong			WandCshort			WandClong			WandCtop			WandC4			WandC5			Acenter			Aantenna			Bcenter			Bantenna			Ccenter			Cantenna			Dcenter			Dantenna			Ecenter			Eantenna			Fcenter			Fantenna			Gcenter			Gantenna			Hcenter			Hantenna			Icenter			Iantenna			
		X1	Y1	Z1	X2	Y2	Z2	X3	Y3	Z3	X4	Y4	Z4	X5	Y5	Z5	X6	Y6	Z6	X7	Y7	Z7	X8	Y8	Z8	X9	Y9	Z9	X10	Y10	Z10	X11	Y11	Z11	X12	Y12	Z12	X13	Y13	Z13	X14	Y14	Z14	X15	Y15	Z15	X16	Y16	Z16	X17	Y17	Z17	X18	Y18	Z18	X19	Y19	Z19	X20	Y20	Z20	X21	Y21	Z21	X22	Y22	Z22	X23	Y23	Z23	X24	Y24	Z24	X25	Y25	Z25	X26	Y26	Z26	X27	Y27	Z27	X28	Y28	Z28	X29	Y29	Z29	X30	Y30	Z30	X31	Y31	Z31	X32	Y32	Z32	X33	Y33	Z33	X34	Y34	Z34	X35	Y35	Z35	X36	Y36	Z36	X37	Y37	Z37	X38	Y38	Z38	X39	Y39	Z39	X40	Y40	Z40	X41	Y41	Z41	X42	Y42	Z42	X43	Y43	Z43	X44	Y44	Z44	X45	Y45	Z45	X46	Y46	Z46	X47	Y47	Z47	X48	Y48	Z48	X49	Y49	Z49	X50	Y50	Z50	X51	Y51	Z51	X52	Y52	Z52	X53	Y53	Z53	X54	Y54	Z54	X55	Y55	Z55	X56	Y56	Z56	X57	Y57	Z57	X58	Y58	Z58	X59	Y59	Z59	X60	Y60	Z60	X61	Y61	Z61	X62	Y62	Z62	X63	Y63	Z63	X64	Y64	Z64	X65	Y65	Z65	X66	Y66	Z66	X67	Y67	Z67	X68	Y68	Z68	X69	Y69	Z69	X70	Y70	Z70	
939	7.8166667	-1038.252	214.5564	-1644.2192	-1109.3142	203.89447	-1599.3606	-1063.7247	173.15199	-1625.6191	-1054.2137	262.22375	-1634.959	-1352.864	235.49928	1003.7679	-1281.3569	227.19231	1052.4071	-1322.868	194.14046	1020.8733	-1284.6252	287.92184	1052.7937	814.05475	187.69189	1209.6304	892.63647	179.34012	1178.6742	844.4339	145.52182	1198.1875	860.60205	292.55255	1167.4694	1115.7349	209.80679	-1401.7369	1056.2439	194.17308	-1460.3156	1095.0804	162.41042	-1423.9878	1069.874	238.72301	-1425.8513	-1204.5171	1685.9563	-1563.2588	-1129.1757	1688.4016	-1606.5602	-1173.1442	1724.4441	-1581.9786	-1134.0197	1581.0122	-1603.833	-1239.7284	1699.3232	1119.4845	-1309.2787	1698.7522	1071.8663	-1270.5989	1736.6067	1096.9692	-1244.6337	1593.9949	1106.5713	988.89966	1664.2751	1162.3004	957.38995	1700.4955	1183.8069	922.79651	1662.0718	1214.9739	939.78369	1659.3622	1159.9359	999.07001	1668.5286	-1579.4235	1058.8627	1670.1677	-1518.6288	1024.9938	1708.0288	-1551.1179	1059.2482	1672.1472	-1585.4407	31.464197	196.41301	-944.37958	115.51396	203.96199	-932.34296	72.71122	161.76706	-940.32581	72.659912	200.64139	-971.19763	61.742683	198.4406	-892.19647																																														-1068.8124	209.97119	-1624.9276	-1074.1499	248.59743	-1624.2021	-1321.4071	231.84491	1025.1649	-1319.9067	270.56601	1029.5724	847.80481	184.10489	1196.335	851.19531	222.91252	1194.4718	1088.7463	202.71448	-1428.3115	1082.7253	241.02704	-1432.4216	-1171.9335	1687.0138	-1581.9857	-1170.6725	1648.0341	-1581.9932	-1271.0321	1699.0662	1098.0521	-1271.4818	1660.085	1099.1768	953.19269	1705.3199	1186.6716	972.96301	1733.4495	1168.2633	1026.4896	1669.2802	-1551.5442	1027.9939	1630.3115	-1551.9731	69.104416	199.79369	-938.98907	65.42408	238.59566	-937.62524
940	7.825	-1038.29	214.70799	-1644.1968	-1109.3149	203.94525	-1599.3934	-1063.8303	172.68539	-1625.4143	-1054.2006	262.25238	-1634.9741	-1352.9717	235.10687	1003.7503	-1281.415	227.21863	1052.405	-1322.8846	194.14815	1020.8605	-1284.5577	287.98566	1052.7554	814.00507	187.63651	1209.6134	892.61877	179.24019	1178.7433	844.39294	145.65565	1198.2102	860.55884	292.55994	1167.3964	1115.739	209.81378	-1401.7188	1056.1873	194.10741	-1460.2598	1095.1058	162.41873	-1423.9482	1069.8489	238.69493	-1425.8561	-1204.5166	1685.9661	-1563.2506	-1129.1382	1688.2706	-1606.0513	-1173.1395	1724.4398	-1581.9697	-1134.0227	1581.0193	-1603.845	-1239.7208	1699.3129	1119.4673	-1309.1167	1698.4647	1071.7716	-1270.4823	1736.4167	1096.8926	-1244.6299	1594.022	1106.5919	988.8678	1664.2745	1162.2761	957.4588	1700.3999	1183.807	922.67249	1662.0581	1214.9658	939.78796	1659.3745	1159.9269	999.0672	1668.5319	-1579.4194	1058.7228	1669.9825	-1518.6437	1024.9982	1708.0209	-1551.1256	1059.251	1672.1488	-1585.449	31.362627	196.63559	-944.49567	115.509	203.94321	-932.31244	72.583839	161.29475	-939.90222	72.643066	200.62572	-971.19788	61.688961	198.52501	-892.17737																																														-1069.0851	210.04143	-1624.7708	-1074.517	248.65559	-1624.1056	-1321.6139	231.65007	1025.0718	-1320.3015	270.38452	1029.4215	847.76385	184.03088	1196.3569	851.17255	222.83643	1194.4828	1088.7311	202.69063	-1428.2682	1082.6675	240.9966	-1432.3773	-1171.8854	1686.9636	-1581.7789	-1170.5811	1647.986	-1581.5807	-1270.8397	1698.9325	1098.0792	-1271.2114	1659.9539	1099.3131	953.1452	1705.361	1186.7639	972.95502	1733.5116	1168.4303	1026.3992	1669.1965	-1551.5741	1027.8054	1630.2245	-1552.0244	69.103943	199.91319	-939.03119	65.604721	238.74602	-938.15527
941	7.8333333	-1038.2509	214.4913	-1644.3162	-1109.332	203.89326	-1599.3728	-1063.8632	172.68674	-1625.3743	-1054.2068	262.22028	-1634.9541	-1352.8813	235.76428	1003.8326	-1281.3638	227.24239	1052.3604	-1322.8302	194.18658	1020.8052	-1284.6722	287.96219	1052.7821	814.06989	187.63049	1209.6274	892.72449	179.15529	1178.7694	844.32697	145.74434	1198.1418	860.534	292.57812	1167.4326	1115.6893	209.5368	-1401.5555	1056.1549	194.07918	-1460.311	1095.1031	162.43813	-1423.9476	1069.8489	238.64616	-1425.8215	-1204.5216	1685.9592	-1563.2517	-1129.1499	1688.2971	-1606.0667	-1173.1444	1724.4253	-1581.9537	-1134.0319	1581.0392	-1603.8497	-1239.7092	1699.2963	1119.4771	-1308.384	1699.562	1069.2833	-1270.4722	1736.3973	1096.8853	-1244.7285	1593.7589	1106.662	988.89905	1664.2933	1162.325	957.32837	1700.4867	1183.7142	922.79559	1662.0278	1214.9827	939.7912	1659.4111	1159.9257	999.06165	1668.5455	-1579.4297	1058.856	1670.1633	-1518.6344	1024.9908	1708.0315	-1551.1245	1059.2419	1672.1381	-1585.4409	31.519831	196.41336	-944.47876	115.57745	204.00008	-932.354	72.574097	161.39893	-939.99561	72.650436	200.62813	-971.19818	61.68013	198.66049	-892.02795																																														-1069.0676	209.89658	-1624.8312	-1074.4694	248.51656	-1624.2675	-1321.3326	232.005	1025.2396	-1319.8002	270.70972	1029.7778	847.76825	183.9994	1196.4067	851.25897	222.80298	1194.6469	1088.7893	202.55244	-1428.1034	1082.7571	240.87798	-1432.0741	-1171.8888	1686.9713	-1581.7888	-1170.5823	1647.9937	-1581.6169	-1270.6168	1699.4158	1096.887	-1270.7692	1660.4161	1096.889	953.1358	1705.293	1186.5547	972.85541	1733.4132	1168.0781	1026.4769	1669.2872	-1551.5553	1027.9719	1630.3182	-1551.9886	68.976051	199.79401	-939.07587	65.338295	238.61284	-938.14606
942	7.8416667	-1038.2374	214.52411	-1644.2139	-1109.3225	203.93958	-1599.4031	-1063.9021	172.66776	-1625.3507	-1054.2021	262.23117	-1634.967	-1352.8972	235.35632	1003.76	-1281.4326	227.20909	1052.4127	-1322.8008	194.18048	1020.8236	-1284.5903	287.9343	1052.7382	814.04535	187.67868	1209.6455	892.10303	178.58713	1179.2352	844.30304	145.67076	1198.2845	860.5741	292.92169	1167.0261	1115.7467	209.80882	-1401.7185	1056.1362	194.14951	-1460.3225	1095.0686	162.34554	-1424.0049	1069.8397	238.71225	-1425.8629	-1204.527	1685.9658	-1563.2457	-1129.1465	1688.3016	-1606.0651	-1173.1461	1724.4469	-1581.9692	-1134.0176	1581.0316	-1603.8503	-1239.7006	1699.2814	1119.4647	-1309.2607	1698.6707	1071.8362	-1270.5083	1736.4584	1096.9166	-1244.9106	1593.8384	1106.3304	988.88525	1664.3032	1162.3	957.4433	1700.3199	1183.8649	922.74274	1662.1709	1215.0573	939.79688	1659.4072	1159.9673	999.07434	1668.5436	-1579.439	1058.8523	1670.162	-1518.6279	1024.9863	1708.0208	-1551.1121	1059.2529	1672.1499	-1585.4467	31.371078	196.64432	-944.52087	115.50615	203.95021	-932.31158	72.61454	161.94084	-940.45734	72.654076	200.59155	-971.18591	61.754726	198.46118	-892.18567																																														-1069.0839	209.93108	-1624.7687	-1074.4548	248.55478	-1624.1658	-1321.4659	231.77304	1025.1582	-1320.0912	270.49225	1029.6227	848.00653	183.72313	1196.4146	851.77997	222.49336	1194.5095	1088.6987	202.70349	-1428.3097	1082.6521	241.01457	-1432.396	-1171.8826	1686.9773	-1581.7891	-1170.5682	1647.9999	-1581.6016	-1270.962	1699.0068	1098.0597	-1271.4343	1660.0277	1099.2493	952.98895	1705.4222	1186.9198	972.71143	1733.625	1168.5723	1026.4851	1669.2855	-1551.5543	1027.9928	1630.3173	-1551.9994	69.111412	199.92151	-939.04413	65.531929	238.73004	-937.60022
943	7.85	-1038.2618	214.54405	-1644.2163	-1109.3043	203.92972	-1599.3534	-1063.8622	172.67439	-1625.3854	-1054.2114	262.20828	-1634.9479	-1352.9946	235.11806	1003.8196	-1281.3567	227.19183	1052.4647	-1322.9403	194.06523	1020.8559	-1284.7648	287.89874	1052.85	814.02142	187.68213	1209.6367	892.57434	179.26822	1178.7646	844.51965	145.44191	1198.3127	860.60773	292.57123	1167.4435	1115.7344	209.79852	-1401.7152	1056.2458	194.14702	-1460.2991	1095.0825	162.39505	-1423.9611	1069.8578	238.70415	-1425.8739	-1204.5168	1685.9623	-1563.2535	-1129.1674	1688.286	-1606.0614	-1173.1521	1724.4387	-1581.973	-1134.0254	1581.038	-1603.8667	-1239.708	1699.3103	1119.4749	-1309.3011	1698.7745	1071.8719	-1270.5845	1736.5718	1096.9524	-1244.8289	1594.0737	1106.1414	988.89838	1664.295	1162.3074	957.15161	1700.6658	1183.7844	922.69751	1662.1768	1215.0519	939.78241	1659.3794	1159.9631	999.07532	1668.5342	-1579.4464	1058.8444	1670.153	-1518.6361	1024.9918	1708.0317	-1551.1226	1059.2487	1672.1565	-1585.4576	31.401571	196.65602	-944.5719	115.59216	204.01126	-932.3905	72.5597	161.36557	-939.95288	72.661163	200.61951	-971.19928	61.687824	198.65672	-892.01154																																														-1069.046	209.94464	-1624.7762	-1074.418	248.56773	-1624.1449	-1321.6611	231.65121	1025.0963	-1320.3429	270.38321	1029.4661	847.87683	184.05582	1196.3312	851.25049	222.85857	1194.3398	1088.7455	202.69774	-1428.2935	1082.7214	241.00897	-1432.4119	-1171.8917	1686.9685	-1581.7887	-1170.5806	1647.991	-1581.5967	-1271.0413	1699.069	1098.0424	-1271.5161	1660.0884	1099.1752	952.99597	1705.4266	1186.5956	972.69458	1733.5457	1168.0947	1026.4854	1669.2765	-1551.5587	1027.9872	1630.3077	-1551.9974	69.06884	199.94678	-939.12183	65.555267	238.77917	-938.2854
944	7.8583333	-1038.2361	214.53297	-1644.2092	-1109.342	203.93251	-1599.3834	-1063.8781	172.67102	-1625.3618	-1054.2284	262.2171	-1634.9285	-1353.0758	235.10944	1003.85	-1281.3763	227.17491	1052.4576	-1322.8247	194.14587	1020.8514	-1284.7805	287.85159	1052.9044	814.12793	187.66422	1209.7098	892.67041	179.34344	1178.6637	844.35333	145.57365	1198.3424	860.67273	292.54266	1167.436	1115.6876	209.53865	-1401.5742	1056.2175	194.15367	-1460.3383	1095.0923	162.50443	-1423.979	1069.8182	238.68086	-1425.8547	-1204.5212	1685.9607	-1563.264	-1129.1367	1688.2744	-1606.062	-1173.1399	1724.4421	-1581.9697	-1134.0243	1581.0435	-1603.8541	-1239.7301	1699.3224	1119.4886	-1309.2961	1698.7393	1071.8619	-1270.5996	1736.5947	1096.9559	-1244.8746	1593.9614	1106.0208	988.85681	1664.2554	1162.3193	957.11084	1700.632	1183.7815	922.70813	1662.0884	1215.1157	939.76208	1659.4056	1159.9883	999.10089	1668.5295	-1579.4299	1058.8518	1670.1532	-1518.6296	1024.9891	1708.0292	-1551.1259	1059.2478	1672.139	-1585.4485	31.407591	196.63647	-944.55981	115.49715	203.94603	-932.29102	72.617004	161.89038	-940.46484	72.640152	200.63039	-971.19977	61.724014	198.246	-892.37024																																														-1069.0638	209.93715	-1624.775	-1074.4386	248.56026	-1624.1672	-1321.6118	231.62749	1025.1805	-1320.3588	270.34991	1029.6531	847.68573	184.10909	1196.4451	851.04181	222.91742	1194.5344	1088.8186	202.58762	-1428.124	1082.8191	240.91898	-1432.0881	-1171.8879	1686.9622	-1581.7908	-1170.5861	1647.9844	-1581.6047	-1271.0374	1699.0598	1098.0548	-1271.4919	1660.0792	1099.1962	952.98785	1705.3561	1186.5688	972.65906	1733.4651	1168.0234	1026.4869	1669.2736	-1551.5629	1027.9929	1630.3052	-1552.0023	69.106766	199.91348	-939.05945	65.52401	238.72208	-937.625
